<?xml version="1.0" encoding="utf-8"?>
<!-- Generator: Adobe Illustrator 18.1.1, SVG Export Plug-In . SVG Version: 6.00 Build 0)  -->
<svg version="1.1" id="Layer_1" xmlns="http://www.w3.org/2000/svg" xmlns:xlink="http://www.w3.org/1999/xlink" x="0px" y="0px"
	 viewBox="0 0 12.5 10" enable-background="new 0 0 12.5 10" xml:space="preserve">
<path d="M6.5,1.4C6.4,1.5,6.3,1.6,6.3,1.6c-0.1,0-0.2,0-0.2-0.1c-2.2-2.7-6.1-1.4-6,2c0.1,2.7,2,4,4.2,5.8C4.8,9.7,5.5,10,6.3,10
	C7,10,7.7,9.7,8.3,9.2c2.2-1.9,4-3.2,4.2-5.7C12.7,0.1,8.7-1.3,6.5,1.4z M7.5,8.3C7.2,8.6,6.7,8.8,6.3,8.8C5.8,8.8,5.4,8.6,5,8.3
	c-2.2-1.9-3.7-2.9-3.8-5C1.2,1.2,3.6,0.4,5,2.2c0.3,0.4,0.7,0.6,1.2,0.6c0.5,0,0.9-0.2,1.2-0.6c1.4-1.8,3.9-1,3.8,1.3
	C11.2,5.5,9.7,6.5,7.5,8.3z"/>
</svg>
