<?xml version="1.0" encoding="utf-8"?>
<!-- Generator: Adobe Illustrator 18.1.1, SVG Export Plug-In . SVG Version: 6.00 Build 0)  -->
<svg version="1.1" id="Capa_1" xmlns="http://www.w3.org/2000/svg" xmlns:xlink="http://www.w3.org/1999/xlink" x="0px" y="0px"
	 viewBox="296.2 -5 14 14" enable-background="new 296.2 -5 14 14" xml:space="preserve">
<g>
	<g>
		<path d="M304.7,5.6c0,0,0.2-0.1,0.3,0c0.7,0.7,2.9,2.9,2.9,2.9c0.6,0.6,1.4,0.7,1.9,0.2l0.1-0.1c0.5-0.5,0.4-1.3-0.2-1.9
			c0,0-2.2-2.2-2.9-2.9c-0.1-0.1,0-0.3,0-0.3c1.3-2.2,1-5-0.9-6.9c-2.2-2.2-5.8-2.2-8,0c-2.2,2.2-2.2,5.8,0,8
			C299.8,6.6,302.5,6.9,304.7,5.6z M298.9,3.7c-1.6-1.6-1.6-4.3,0-5.9c1.6-1.6,4.3-1.6,5.9,0c1.6,1.6,1.6,4.3,0,5.9
			C303.2,5.3,300.6,5.3,298.9,3.7z"/>
		<g>
			<path d="M304,0c-0.5-1.3-2-1.9-3.3-1.3c-0.3,0.1-0.6,0-0.8-0.3c-0.1-0.3,0-0.6,0.3-0.8c1.9-0.8,4,0.1,4.8,2
				c0.1,0.3,0,0.6-0.3,0.8c-0.1,0-0.2,0-0.2,0C304.3,0.4,304,0.2,304,0z"/>
		</g>
	</g>
</g>
</svg>
