<?xml version="1.0" encoding="utf-8"?>
<!-- Generator: Adobe Illustrator 18.1.1, SVG Export Plug-In . SVG Version: 6.00 Build 0)  -->
<svg version="1.1" id="Layer_1" xmlns="http://www.w3.org/2000/svg" xmlns:xlink="http://www.w3.org/1999/xlink" x="0px" y="0px"
	 viewBox="0 0 10 10" enable-background="new 0 0 10 10" xml:space="preserve">
<path d="M10,8.8C9.6,7.1,8.4,5.9,6.9,5.3C7.7,4.7,8.2,3.7,8,2.5C7.8,1.2,6.7,0.2,5.4,0C3.5-0.2,1.9,1.2,1.9,3c0,0.9,0.4,1.8,1.1,2.3
	C1.6,5.9,0.4,7.1,0,8.8C-0.1,9.4,0.4,10,1,10H9C9.6,10,10.1,9.4,10,8.8z M3,3c0-1.1,0.9-2,2-2c1.1,0,2,0.9,2,2c0,1.1-0.9,2-2,2
	C3.9,5,3,4.1,3,3z M8.3,9H1.7C1.4,9,1.1,8.6,1.2,8.3C1.9,6.8,3.3,6,5,6s3.1,0.8,3.8,2.3C8.9,8.6,8.6,9,8.3,9z"/>
</svg>
