<?xml version="1.0" encoding="utf-8"?>
<!-- Generator: Adobe Illustrator 18.1.1, SVG Export Plug-In . SVG Version: 6.00 Build 0)  -->
<svg version="1.1" id="Layer_1" xmlns="http://www.w3.org/2000/svg" xmlns:xlink="http://www.w3.org/1999/xlink" x="0px" y="0px"
	 viewBox="0 0 9.9 10" enable-background="new 0 0 9.9 10" xml:space="preserve">
<path d="M7.4,8L7.6,8c0.2,0.1,0.3,0.2,0.3,0.5C7.9,8.8,7.7,9,7.4,9c0,0-0.1,0-0.1,0C7.2,9,7,8.8,7,8.6C6.9,8.3,7.1,8.1,7.3,8L7.4,8
	 M1.5,8L1.7,8C1.8,8.1,2,8.3,2,8.5C2,8.8,1.8,9,1.5,9c0,0-0.1,0-0.1,0C1.2,9,1,8.8,1,8.6C0.9,8.3,1.1,8.1,1.3,8L1.5,8 M9.4,0H7.9
	l0,0C7.4,0,7,0.4,7,1v5H2V3.5C2,3.2,2.2,3,2.5,3h2C4.7,3,5,2.8,5,2.5C5,2.2,4.7,2,4.5,2H2C1.4,2,1,2.4,1,3c0,2.7,0,2.1,0,4.1
	C0.3,7.3-0.1,8,0,8.8C0.1,9.4,0.6,9.9,1.2,10c0.1,0,0.2,0,0.3,0C2.3,10,3,9.3,3,8.5c0-0.7-0.4-1.2-1-1.4V7h5v0.1
	C6.3,7.3,5.8,8,6,8.8C6.1,9.4,6.6,9.9,7.2,10c0.1,0,0.2,0,0.3,0c0.8,0,1.5-0.7,1.5-1.5c0-0.7-0.4-1.2-1-1.4c0-2.3,0-3.3,0-5.6
	C7.9,1.2,8.2,1,8.4,1h1c0.3,0,0.5-0.2,0.5-0.5S9.7,0,9.4,0L9.4,0z"/>
</svg>
