<?xml version="1.0" encoding="utf-8"?>
<!-- Generator: Adobe Illustrator 18.1.1, SVG Export Plug-In . SVG Version: 6.00 Build 0)  -->
<svg version="1.1" id="Layer_1" xmlns="http://www.w3.org/2000/svg" xmlns:xlink="http://www.w3.org/1999/xlink" x="0px" y="0px"
	 viewBox="0 0 143 29.2" enable-background="new 0 0 143 29.2" xml:space="preserve">
<path d="M23.4,6.2L12.7,0L0,7.3v12.4c0,1.4,0.7,2.6,1.9,3.3l10.7,6.2L25.2,22l0.1-0.1V9.5C25.3,8.1,24.6,6.9,23.4,6.2z M12.4,28.5
	L2.1,22.6c-0.9-0.5-1.5-1.4-1.6-2.4l11.9-7.3V28.5z M12.4,12.3L0.5,19.6v-3.7l0,0l11.9-7.3V12.3z M12.4,8.1L0.5,15.4V12l11.9-7.3
	V8.1z M12.4,4.1L0.5,11.4V7.6l11.9-6.9V4.1z M12.7,28.7l-0.2-0.1h0.4L12.7,28.7z M24.8,21.6l-11.9,6.9v-3.1l11.9-7.5V21.6z
	 M24.8,17.4l-11.9,7.5v-3.8l0,0l11.9-7.4V17.4z M24.8,13.1l-11.9,7.5v-3.4l11.9-7.5V13.1z M12.9,16.6V0.7l10.3,5.9
	c0.9,0.5,1.5,1.5,1.6,2.5L12.9,16.6z M38.7,9.8l0,10.5H38l0-9l-4.4,7.6h-0.4l-4.4-7.6v9H28V9.8h0.6l4.7,8.1l4.7-8.1H38.7z
	 M46.2,12.9c-0.6-0.3-1.3-0.5-2-0.5c-0.7,0-1.4,0.2-2,0.5c-0.6,0.3-1.1,0.8-1.4,1.4c-0.3,0.6-0.5,1.3-0.5,2c0,0.8,0.2,1.4,0.5,2
	c0.3,0.6,0.8,1.1,1.4,1.4c0.6,0.3,1.3,0.5,2,0.5c0.7,0,1.4-0.2,2-0.5c0.6-0.3,1.1-0.8,1.4-1.4c0.3-0.6,0.5-1.3,0.5-2
	c0-0.8-0.2-1.4-0.5-2C47.3,13.7,46.8,13.2,46.2,12.9z M47,18.1c-0.3,0.5-0.7,0.9-1.1,1.2c-0.5,0.3-1,0.4-1.6,0.4
	c-0.6,0-1.1-0.1-1.6-0.4c-0.5-0.3-0.9-0.7-1.1-1.2c-0.3-0.5-0.4-1.1-0.4-1.7c0-0.6,0.1-1.2,0.4-1.7c0.3-0.5,0.6-0.9,1.1-1.2
	c0.5-0.3,1-0.4,1.6-0.4c0.6,0,1.1,0.1,1.6,0.4c0.5,0.3,0.8,0.7,1.1,1.2c0.3,0.5,0.4,1.1,0.4,1.7C47.4,17,47.2,17.6,47,18.1z
	 M55.7,14.3c-0.3-0.6-0.8-1-1.3-1.4c-0.6-0.3-1.2-0.5-1.9-0.5c-0.7,0-1.4,0.2-2,0.5c-0.6,0.3-1.1,0.8-1.4,1.4
	c-0.3,0.6-0.5,1.3-0.5,2.1c0,0.8,0.2,1.5,0.5,2.1c0.3,0.6,0.8,1.1,1.4,1.4c0.6,0.3,1.3,0.5,2,0.5c0.7,0,1.3-0.2,1.9-0.5
	c0.6-0.3,1-0.8,1.3-1.4v1.8h0.7V9.2h-0.8V14.3z M55.3,18.1c-0.3,0.5-0.7,0.9-1.1,1.2c-0.5,0.3-1,0.4-1.6,0.4c-0.6,0-1.1-0.1-1.6-0.4
	c-0.5-0.3-0.9-0.7-1.1-1.2c-0.3-0.5-0.4-1.1-0.4-1.7c0-0.6,0.1-1.2,0.4-1.7c0.3-0.5,0.6-0.9,1.1-1.2c0.5-0.3,1-0.4,1.6-0.4
	c0.6,0,1.1,0.1,1.6,0.4c0.5,0.3,0.8,0.7,1.1,1.2c0.3,0.5,0.4,1.1,0.4,1.7C55.7,17,55.6,17.6,55.3,18.1z M63.4,12.9
	c-0.6-0.3-1.2-0.5-1.9-0.5c-0.7,0-1.4,0.2-1.9,0.5c-0.6,0.3-1,0.8-1.3,1.4c-0.3,0.6-0.5,1.3-0.5,2c0,0.8,0.2,1.5,0.5,2.1
	c0.3,0.6,0.8,1.1,1.4,1.4c0.6,0.3,1.3,0.5,2.1,0.5c0.6,0,1.2-0.1,1.7-0.3c0.5-0.2,0.9-0.5,1.3-0.9l-0.4-0.5
	c-0.3,0.4-0.7,0.6-1.1,0.8c-0.4,0.2-0.9,0.3-1.4,0.3c-0.6,0-1.2-0.1-1.7-0.4c-0.5-0.3-0.9-0.6-1.2-1.1c-0.3-0.5-0.4-1-0.5-1.6h6.7
	l0-0.2c0-0.8-0.2-1.4-0.5-2C64.5,13.7,64,13.2,63.4,12.9z M58.5,16c0-0.6,0.2-1.1,0.5-1.5c0.3-0.4,0.6-0.8,1.1-1
	c0.4-0.2,0.9-0.4,1.5-0.4c0.5,0,1,0.1,1.5,0.4c0.4,0.3,0.8,0.6,1.1,1c0.3,0.4,0.4,0.9,0.4,1.5H58.5z M68.5,12.8
	c0.5-0.3,1.1-0.5,1.9-0.5v0.7l-0.2,0c-0.9,0-1.6,0.3-2,0.8c-0.5,0.5-0.7,1.3-0.7,2.3v4.1h-0.8v-7.8h0.7v1.7
	C67.6,13.6,68,13.2,68.5,12.8z M77.6,13.2c0.6,0.6,0.9,1.4,0.9,2.5v4.6h-0.8v-4.5c0-0.9-0.2-1.5-0.7-2c-0.4-0.5-1.1-0.7-1.9-0.7
	c-0.9,0-1.6,0.3-2.2,0.8c-0.5,0.6-0.8,1.3-0.8,2.2v4.2h-0.7v-7.8h0.7v1.7c0.3-0.6,0.7-1,1.2-1.3c0.5-0.3,1.2-0.5,1.9-0.5
	C76.2,12.4,77,12.7,77.6,13.2z M83.7,9.8h7v0.7h-6.3V15H90v0.7h-5.6v4.6h-0.8V9.8z M97.7,12.5h0.8v7.8h-0.7v-1.7
	c-0.3,0.5-0.6,1-1.2,1.3c-0.5,0.3-1.1,0.5-1.8,0.5c-1,0-1.8-0.3-2.4-0.9c-0.6-0.6-0.9-1.4-0.9-2.5v-4.6h0.8V17c0,0.9,0.2,1.6,0.7,2
	c0.5,0.5,1.1,0.7,1.9,0.7c0.9,0,1.6-0.3,2.1-0.8c0.5-0.5,0.8-1.3,0.8-2.2V12.5z M102.5,12.8c0.5-0.3,1.1-0.5,1.9-0.5v0.7l-0.2,0
	c-0.9,0-1.6,0.3-2,0.8c-0.5,0.5-0.7,1.3-0.7,2.3v4.1h-0.8v-7.8h0.7v1.7C101.6,13.6,102,13.2,102.5,12.8z M111.6,13.2
	c0.6,0.6,0.9,1.4,0.9,2.5v4.6h-0.8v-4.5c0-0.9-0.2-1.5-0.7-2c-0.4-0.5-1.1-0.7-1.9-0.7c-0.9,0-1.6,0.3-2.2,0.8
	c-0.5,0.6-0.8,1.3-0.8,2.2v4.2h-0.8v-7.8h0.7v1.7c0.3-0.6,0.7-1,1.2-1.3c0.5-0.3,1.2-0.5,1.9-0.5C110.3,12.4,111.1,12.7,111.6,13.2z
	 M114.6,12.5h0.8v7.8h-0.8V12.5z M115.4,9.5c0.1,0.1,0.2,0.3,0.2,0.4c0,0.2-0.1,0.3-0.2,0.4c-0.1,0.1-0.3,0.2-0.4,0.2
	c-0.2,0-0.3-0.1-0.4-0.2c-0.1-0.1-0.2-0.3-0.2-0.4s0.1-0.3,0.2-0.4c0.1-0.1,0.3-0.2,0.4-0.2C115.2,9.3,115.3,9.4,115.4,9.5z
	 M121.1,19.3l0.3,0.5c-0.2,0.2-0.4,0.3-0.7,0.4c-0.3,0.1-0.6,0.1-0.9,0.1c-0.7,0-1.2-0.2-1.6-0.6c-0.4-0.4-0.6-0.9-0.6-1.6v-5.1
	h-1.4v-0.6h1.4v-1.7h0.8v1.7h2.5v0.6h-2.5v5c0,0.5,0.1,0.9,0.4,1.2c0.2,0.3,0.6,0.4,1.1,0.4C120.4,19.7,120.8,19.6,121.1,19.3z
	 M128.6,12.5h0.8v7.8h-0.7v-1.7c-0.3,0.5-0.6,1-1.2,1.3c-0.5,0.3-1.1,0.5-1.8,0.5c-1,0-1.8-0.3-2.4-0.9c-0.6-0.6-0.9-1.4-0.9-2.5
	v-4.6h0.8V17c0,0.9,0.2,1.6,0.7,2c0.5,0.5,1.1,0.7,1.9,0.7c0.9,0,1.6-0.3,2.1-0.8c0.5-0.5,0.8-1.3,0.8-2.2V12.5z M133.4,12.8
	c0.5-0.3,1.1-0.5,1.9-0.5v0.7l-0.2,0c-0.9,0-1.6,0.3-2,0.8c-0.5,0.5-0.7,1.3-0.7,2.3v4.1h-0.8v-7.8h0.7v1.7
	C132.6,13.6,132.9,13.2,133.4,12.8z M143,16.3c0-0.8-0.2-1.4-0.5-2c-0.3-0.6-0.8-1.1-1.3-1.4c-0.6-0.3-1.2-0.5-1.9-0.5
	c-0.7,0-1.4,0.2-1.9,0.5c-0.6,0.3-1,0.8-1.3,1.4c-0.3,0.6-0.5,1.3-0.5,2c0,0.8,0.2,1.5,0.5,2.1c0.3,0.6,0.8,1.1,1.4,1.4
	c0.6,0.3,1.3,0.5,2.1,0.5c0.6,0,1.2-0.1,1.7-0.3c0.5-0.2,0.9-0.5,1.3-0.9l-0.4-0.5c-0.3,0.4-0.7,0.6-1.1,0.8
	c-0.4,0.2-0.9,0.3-1.4,0.3c-0.6,0-1.2-0.1-1.7-0.4c-0.5-0.3-0.9-0.6-1.2-1.1c-0.3-0.5-0.4-1-0.5-1.6h6.7L143,16.3z M136.2,16
	c0-0.6,0.2-1.1,0.5-1.5c0.3-0.4,0.6-0.8,1.1-1c0.4-0.2,0.9-0.4,1.5-0.4c0.5,0,1,0.1,1.5,0.4c0.4,0.3,0.8,0.6,1.1,1
	c0.3,0.4,0.4,0.9,0.5,1.5H136.2z"/>
</svg>
