<?xml version="1.0" encoding="utf-8"?>
<!-- Generator: Adobe Illustrator 18.1.1, SVG Export Plug-In . SVG Version: 6.00 Build 0)  -->
<svg version="1.1" id="Layer_1" xmlns="http://www.w3.org/2000/svg" xmlns:xlink="http://www.w3.org/1999/xlink" x="0px" y="0px"
	 viewBox="0 0 10 8" enable-background="new 0 0 10 8" xml:space="preserve">
<path fill="#252525" d="M3.1,8C6.9,8,9,4.9,9,2.3C9,2.2,9,2.1,9,2c0.4-0.3,0.7-0.6,1-1C9.6,1.1,9.2,1.2,8.8,1.3
	C9.2,1,9.6,0.6,9.7,0.1C9.3,0.4,8.9,0.5,8.4,0.6C7.6-0.2,6.3-0.2,5.5,0.5C5,1,4.8,1.8,4.9,2.5C3.3,2.4,1.7,1.6,0.7,0.4
	C0.2,1.3,0.4,2.5,1.3,3.1C1,3.1,0.7,3,0.4,2.8c0,0,0,0,0,0c0,1,0.7,1.8,1.6,2c-0.3,0.1-0.6,0.1-0.9,0c0.3,0.8,1,1.4,1.9,1.4
	C2.3,6.8,1.4,7.1,0.5,7.1c-0.2,0-0.3,0-0.5,0C0.9,7.7,2,8,3.1,8"/>
</svg>
